Patient4_TMGait_0pt7_01_left_10_EMG.mot
version=1
nRows=17
nColumns=33
inDegrees=no
endheader
time	1LAddLong	2LGlutMax	3LGlutMed	4LIliopsoas	5LSemiMemb	6LBicFemLong	7LRecFem	8LVastMed	9LVastLat	10LGasMed	11LTibAnt	12lTibPost	13LPeroneusLong	14LSol	15LExtDigLong	16LFlexDigLong	17RAddLong	18RGlutMax	19RGlutMed	20RIliopsoas	21RSemiMemb	22RBicFemLong	23RRecFem	24RVastMed	25RVastLat	26RGasMed	27RTibAnt	28RTibPost	29RPeroneusLong	30RSol	31RExtDigLong	32RFlexDigLong
11.43	0.006714	-2.0308	0.005188	0.009155	0.014038	0.008087	0.17899	0.031128	-0.20401	-0.017548	-0.012665	-0.008087	-0.021362	-0.016327	0.04837	-0.010376	0.02182	0.14175	0.62118	-0.15747	-0.05127	-0.28351	-0.49606	0.35446	0.30945	0.035858	-0.52429	0.003815	0.96237	-0.23712	0.001831	0.000458
11.431	0.004578	-2.1873	-0.005493	-0.018005	0.018921	0.018768	0.29236	0.02533	-0.23453	-0.046997	0.14832	-0.013275	-0.078125	-0.039368	0.15961	0.003967	0.019073	0.14725	0.70404	-0.14877	0.035248	-0.019684	-0.55618	0.26825	0.21896	0.022278	-0.20783	-0.013275	-0.23392	-0.36957	0.001831	0
11.432	0.013733	-2.3119	0.015106	-0.018616	0.005493	0.02182	0.23819	0.026855	-0.26398	-0.050049	0.070343	-0.007782	-0.13245	-0.034637	0.24307	0.011597	0.032501	0.24277	0.26199	-0.16464	0.024414	-0.076752	-0.55908	0.031586	0.14969	-0.007019	-0.027008	-0.017242	-1.279	-0.2034	0.002747	-0.005493
11.433	-0.000916	-2.4748	-0.026855	-0.012207	-0.000305	0.029297	0.17181	0.02655	-0.29114	-0.047302	0.041351	-0.008392	-0.12833	-0.043335	0.098877	0.012512	0.013733	0.22354	0.18677	-0.103	-0.071411	0.1239	-0.3891	-0.19226	0.02182	-0.046997	-0.16266	-0.019531	-1.2656	-0.041046	0.000305	0.007782
11.434	-0.000458	-2.5113	-0.055389	-0.013123	-0.005493	0.031281	0.15945	0.023041	-0.29297	-0.073547	-0.041504	-0.003357	-0.066681	-0.007935	0.050659	0.019073	0.031128	0.24826	0.52856	0.005951	-0.13825	0.45487	0.042572	-0.15961	-0.49118	-0.07019	0.026245	-0.018311	-1.1841	0.11719	-0.001068	0.007324
11.435	-0.006409	-2.4658	-0.062561	-0.023956	-0.005341	-0.001678	0.22903	0.027008	-0.28961	-0.086212	-0.027313	-0.007477	0.0383	0.059204	-0.07782	0.011902	0.043335	0.30411	0.25162	0.092621	-0.12238	0.59723	0.15015	-0.10757	-0.76324	-0.029907	0.22415	-0.02121	-3.1137	0.059662	-0.005341	0.010223
11.436	-0.011749	-2.3819	-0.047913	-0.022583	0.001221	0.002899	0.29373	0.021362	-0.31601	-0.07431	0.10727	-0.005493	0.11993	0.15579	-0.070496	0.019531	0.006714	0.17227	-0.006561	0.15213	0.012054	0.45898	0.11124	-0.12009	-0.41916	-0.016174	0.13443	-0.031586	-1.7982	0.038452	0.002289	0.010681
11.437	-0.002441	-2.2191	-0.041504	0.002747	-0.000305	-0.017853	0.31021	0.023499	-0.27786	-0.03067	0.095215	-0.001678	0.13672	0.11322	-0.05188	0.00473	-0.011902	0.13062	-0.006561	0.14923	-0.087738	0.41519	0.035095	-0.24399	-0.15137	-0.011902	0.059662	-0.032654	3.0946	0.031433	0.001068	0
11.438	-0.010834	-2.028	-0.034637	0.007782	0.001373	0.007782	0.26047	0.018158	-0.27771	0.030518	0.051575	-0.000153	0.12054	-0.010681	-0.28336	0.020294	-0.013275	0.059204	-0.065155	0.097046	-0.079803	0.41977	0.16235	-0.21957	-0.15015	-0.00351	-0.099335	0.058289	4.7711	-0.038452	-0.001984	0.00473
11.439	-0.012665	-1.895	-0.030365	0	0	-0.002899	0.21668	0.016174	-0.28137	0.1004	0.030365	0.005798	0.08316	-0.077209	-0.31586	0.005646	-0.005493	0.09613	0.41351	0.069733	-0.02533	0.2536	0.17288	-0.18631	-0.097809	-0.1004	-0.09079	0.031128	0.94864	-0.063324	0.012054	-0.005798
11.44	-0.03067	-1.7332	0	0.013733	-0.00412	-0.006104	0.28412	0.021667	-0.28931	0.11871	0.016174	0.004883	0.049591	-0.1181	-0.21088	0.020142	-0.026703	0.080566	-0.084991	0.029602	0.00824	0.041809	-0.02121	0.003662	0.060425	-0.12741	-0.13077	0.000305	-0.48675	0.26123	0.002747	-0.004883
11.441	-0.011597	-1.5875	-0.014954	0.056915	0.005798	0.013885	0.35996	0.0177	-0.27588	0.14618	0.004425	0.005188	0.034637	-0.099182	-0.12421	0.015717	-0.032806	0.072327	-0.67658	0.009308	0.036621	-0.047607	0.086517	0.039825	0.074615	0.025787	-0.26901	-0.011444	1.0335	0.2214	0.001984	-0.00473
11.442	-0.012665	-1.4554	-0.030518	0.039368	0.003204	0.029755	0.35141	0.018768	-0.26382	0.06073	0.012054	0.005341	0.020599	-0.030212	-0.062714	0.008545	-0.012512	0.1416	-0.26154	-0.068207	-0.001984	-0.1062	0.34927	0.033264	-0.1001	0.14404	-0.046997	-0.010681	0.98755	-0.1799	0.002441	-0.009613
11.443	-0.042114	-1.2814	0.011902	0.01297	0.004425	0.033875	0.33859	0.016632	-0.25803	0.00824	0.025787	0.009613	-0.03479	-0.028687	0.002899	0.010071	0.003967	0.19867	0.22598	-0.088348	-0.013275	-0.22461	0.46585	-0.019379	-0.25635	0.091248	0.038757	-0.001068	-1.2119	-0.14496	0.001221	-0.003357
11.444	0.014496	-1.1357	0.012817	0.011139	0.003662	0.033112	0.25864	0.023804	-0.26016	0.006409	0.033417	0.006104	0.001373	-0.033569	0.061951	0.007629	-0.016937	0.24262	0.41672	-0.065918	0.00946	-0.23361	0.13123	0.1059	-0.32532	0.05249	0.2298	-0.013733	-1.2781	0.28061	0.000153	-0.010071
11.445	0.002594	-0.97626	0.000305	0.020599	-0.005951	0.049286	0.21637	0.024414	-0.26032	0.015564	0.047607	0.005188	0.014343	-0.002594	0.059357	0.011902	-0.047607	0.29373	0.6247	-0.10239	0.027618	0.03006	-0.35507	0.11993	-0.34912	0.028839	0.38162	-0.012817	-0.2243	0.40146	0.000305	-0.011597
11.446	0.01358	-0.74554	-0.005341	0.001984	-0.006104	0.058899	0.177	0.028381	-0.25833	0.029755	0.11017	0.010986	-0.039368	0.024872	0.09613	0.025635	-0.044556	0.31036	0.23438	-0.012817	-0.016937	0.33798	-0.62439	0.38498	0.10635	0.004578	0.49072	-0.001831	1.4742	0.047302	0.003204	-0.009308
